%TF.GenerationSoftware,KiCad,Pcbnew,(6.0.1)*%
%TF.CreationDate,2022-02-12T00:31:54+11:00*%
%TF.ProjectId,VolcaModularMidi,566f6c63-614d-46f6-9475-6c61724d6964,rev?*%
%TF.SameCoordinates,Original*%
%TF.FileFunction,Legend,Top*%
%TF.FilePolarity,Positive*%
%FSLAX46Y46*%
G04 Gerber Fmt 4.6, Leading zero omitted, Abs format (unit mm)*
G04 Created by KiCad (PCBNEW (6.0.1)) date 2022-02-12 00:31:54*
%MOMM*%
%LPD*%
G01*
G04 APERTURE LIST*
%ADD10C,0.150000*%
%ADD11C,0.304800*%
%ADD12C,0.120000*%
%ADD13C,2.499360*%
G04 APERTURE END LIST*
D10*
X131508666Y-65746380D02*
X131842000Y-66746380D01*
X132175333Y-65746380D01*
X133080095Y-66651142D02*
X133032476Y-66698761D01*
X132889619Y-66746380D01*
X132794380Y-66746380D01*
X132651523Y-66698761D01*
X132556285Y-66603523D01*
X132508666Y-66508285D01*
X132461047Y-66317809D01*
X132461047Y-66174952D01*
X132508666Y-65984476D01*
X132556285Y-65889238D01*
X132651523Y-65794000D01*
X132794380Y-65746380D01*
X132889619Y-65746380D01*
X133032476Y-65794000D01*
X133080095Y-65841619D01*
X134080095Y-66651142D02*
X134032476Y-66698761D01*
X133889619Y-66746380D01*
X133794380Y-66746380D01*
X133651523Y-66698761D01*
X133556285Y-66603523D01*
X133508666Y-66508285D01*
X133461047Y-66317809D01*
X133461047Y-66174952D01*
X133508666Y-65984476D01*
X133556285Y-65889238D01*
X133651523Y-65794000D01*
X133794380Y-65746380D01*
X133889619Y-65746380D01*
X134032476Y-65794000D01*
X134080095Y-65841619D01*
X111586666Y-75652380D02*
X111920000Y-76652380D01*
X112253333Y-75652380D01*
X112729523Y-76652380D02*
X112634285Y-76604761D01*
X112586666Y-76557142D01*
X112539047Y-76461904D01*
X112539047Y-76176190D01*
X112586666Y-76080952D01*
X112634285Y-76033333D01*
X112729523Y-75985714D01*
X112872380Y-75985714D01*
X112967619Y-76033333D01*
X113015238Y-76080952D01*
X113062857Y-76176190D01*
X113062857Y-76461904D01*
X113015238Y-76557142D01*
X112967619Y-76604761D01*
X112872380Y-76652380D01*
X112729523Y-76652380D01*
X113634285Y-76652380D02*
X113539047Y-76604761D01*
X113491428Y-76509523D01*
X113491428Y-75652380D01*
X114443809Y-76604761D02*
X114348571Y-76652380D01*
X114158095Y-76652380D01*
X114062857Y-76604761D01*
X114015238Y-76557142D01*
X113967619Y-76461904D01*
X113967619Y-76176190D01*
X114015238Y-76080952D01*
X114062857Y-76033333D01*
X114158095Y-75985714D01*
X114348571Y-75985714D01*
X114443809Y-76033333D01*
X115300952Y-76652380D02*
X115300952Y-76128571D01*
X115253333Y-76033333D01*
X115158095Y-75985714D01*
X114967619Y-75985714D01*
X114872380Y-76033333D01*
X115300952Y-76604761D02*
X115205714Y-76652380D01*
X114967619Y-76652380D01*
X114872380Y-76604761D01*
X114824761Y-76509523D01*
X114824761Y-76414285D01*
X114872380Y-76319047D01*
X114967619Y-76271428D01*
X115205714Y-76271428D01*
X115300952Y-76223809D01*
X116539047Y-76652380D02*
X116539047Y-75652380D01*
X116872380Y-76366666D01*
X117205714Y-75652380D01*
X117205714Y-76652380D01*
X117824761Y-76652380D02*
X117729523Y-76604761D01*
X117681904Y-76557142D01*
X117634285Y-76461904D01*
X117634285Y-76176190D01*
X117681904Y-76080952D01*
X117729523Y-76033333D01*
X117824761Y-75985714D01*
X117967619Y-75985714D01*
X118062857Y-76033333D01*
X118110476Y-76080952D01*
X118158095Y-76176190D01*
X118158095Y-76461904D01*
X118110476Y-76557142D01*
X118062857Y-76604761D01*
X117967619Y-76652380D01*
X117824761Y-76652380D01*
X119015238Y-76652380D02*
X119015238Y-75652380D01*
X119015238Y-76604761D02*
X118920000Y-76652380D01*
X118729523Y-76652380D01*
X118634285Y-76604761D01*
X118586666Y-76557142D01*
X118539047Y-76461904D01*
X118539047Y-76176190D01*
X118586666Y-76080952D01*
X118634285Y-76033333D01*
X118729523Y-75985714D01*
X118920000Y-75985714D01*
X119015238Y-76033333D01*
X119920000Y-75985714D02*
X119920000Y-76652380D01*
X119491428Y-75985714D02*
X119491428Y-76509523D01*
X119539047Y-76604761D01*
X119634285Y-76652380D01*
X119777142Y-76652380D01*
X119872380Y-76604761D01*
X119920000Y-76557142D01*
X120539047Y-76652380D02*
X120443809Y-76604761D01*
X120396190Y-76509523D01*
X120396190Y-75652380D01*
X121348571Y-76652380D02*
X121348571Y-76128571D01*
X121300952Y-76033333D01*
X121205714Y-75985714D01*
X121015238Y-75985714D01*
X120920000Y-76033333D01*
X121348571Y-76604761D02*
X121253333Y-76652380D01*
X121015238Y-76652380D01*
X120920000Y-76604761D01*
X120872380Y-76509523D01*
X120872380Y-76414285D01*
X120920000Y-76319047D01*
X121015238Y-76271428D01*
X121253333Y-76271428D01*
X121348571Y-76223809D01*
X121824761Y-76652380D02*
X121824761Y-75985714D01*
X121824761Y-76176190D02*
X121872380Y-76080952D01*
X121920000Y-76033333D01*
X122015238Y-75985714D01*
X122110476Y-75985714D01*
X123205714Y-76652380D02*
X123205714Y-75652380D01*
X123539047Y-76366666D01*
X123872380Y-75652380D01*
X123872380Y-76652380D01*
X124348571Y-76652380D02*
X124348571Y-75652380D01*
X124824761Y-76652380D02*
X124824761Y-75652380D01*
X125062857Y-75652380D01*
X125205714Y-75700000D01*
X125300952Y-75795238D01*
X125348571Y-75890476D01*
X125396190Y-76080952D01*
X125396190Y-76223809D01*
X125348571Y-76414285D01*
X125300952Y-76509523D01*
X125205714Y-76604761D01*
X125062857Y-76652380D01*
X124824761Y-76652380D01*
X125824761Y-76652380D02*
X125824761Y-75652380D01*
X127062857Y-76652380D02*
X127062857Y-75652380D01*
X127539047Y-76652380D02*
X127539047Y-75652380D01*
X128110476Y-76652380D01*
X128110476Y-75652380D01*
X129634285Y-77033333D02*
X129586666Y-76985714D01*
X129491428Y-76842857D01*
X129443809Y-76747619D01*
X129396190Y-76604761D01*
X129348571Y-76366666D01*
X129348571Y-76176190D01*
X129396190Y-75938095D01*
X129443809Y-75795238D01*
X129491428Y-75700000D01*
X129586666Y-75557142D01*
X129634285Y-75509523D01*
X129872380Y-75747619D02*
X130062857Y-75604761D01*
X130253333Y-75747619D01*
X130348571Y-76747619D02*
X131110476Y-76747619D01*
X131205714Y-75747619D02*
X131396190Y-75604761D01*
X131586666Y-75747619D01*
X131824761Y-77033333D02*
X131872380Y-76985714D01*
X131967619Y-76842857D01*
X132015238Y-76747619D01*
X132062857Y-76604761D01*
X132110476Y-76366666D01*
X132110476Y-76176190D01*
X132062857Y-75938095D01*
X132015238Y-75795238D01*
X131967619Y-75700000D01*
X131872380Y-75557142D01*
X131824761Y-75509523D01*
X131826095Y-71128000D02*
X131730857Y-71080380D01*
X131588000Y-71080380D01*
X131445142Y-71128000D01*
X131349904Y-71223238D01*
X131302285Y-71318476D01*
X131254666Y-71508952D01*
X131254666Y-71651809D01*
X131302285Y-71842285D01*
X131349904Y-71937523D01*
X131445142Y-72032761D01*
X131588000Y-72080380D01*
X131683238Y-72080380D01*
X131826095Y-72032761D01*
X131873714Y-71985142D01*
X131873714Y-71651809D01*
X131683238Y-71651809D01*
X132302285Y-72080380D02*
X132302285Y-71080380D01*
X132873714Y-72080380D01*
X132873714Y-71080380D01*
X133349904Y-72080380D02*
X133349904Y-71080380D01*
X133588000Y-71080380D01*
X133730857Y-71128000D01*
X133826095Y-71223238D01*
X133873714Y-71318476D01*
X133921333Y-71508952D01*
X133921333Y-71651809D01*
X133873714Y-71842285D01*
X133826095Y-71937523D01*
X133730857Y-72032761D01*
X133588000Y-72080380D01*
X133349904Y-72080380D01*
X132421333Y-69540380D02*
X132088000Y-69064190D01*
X131849904Y-69540380D02*
X131849904Y-68540380D01*
X132230857Y-68540380D01*
X132326095Y-68588000D01*
X132373714Y-68635619D01*
X132421333Y-68730857D01*
X132421333Y-68873714D01*
X132373714Y-68968952D01*
X132326095Y-69016571D01*
X132230857Y-69064190D01*
X131849904Y-69064190D01*
X132754666Y-68540380D02*
X133421333Y-69540380D01*
X133421333Y-68540380D02*
X132754666Y-69540380D01*
%TO.C,R2*%
X129992380Y-68746666D02*
X129516190Y-69080000D01*
X129992380Y-69318095D02*
X128992380Y-69318095D01*
X128992380Y-68937142D01*
X129040000Y-68841904D01*
X129087619Y-68794285D01*
X129182857Y-68746666D01*
X129325714Y-68746666D01*
X129420952Y-68794285D01*
X129468571Y-68841904D01*
X129516190Y-68937142D01*
X129516190Y-69318095D01*
X129087619Y-68365714D02*
X129040000Y-68318095D01*
X128992380Y-68222857D01*
X128992380Y-67984761D01*
X129040000Y-67889523D01*
X129087619Y-67841904D01*
X129182857Y-67794285D01*
X129278095Y-67794285D01*
X129420952Y-67841904D01*
X129992380Y-68413333D01*
X129992380Y-67794285D01*
%TO.C,J1*%
X136826666Y-74382380D02*
X136826666Y-75096666D01*
X136779047Y-75239523D01*
X136683809Y-75334761D01*
X136540952Y-75382380D01*
X136445714Y-75382380D01*
X137826666Y-75382380D02*
X137255238Y-75382380D01*
X137540952Y-75382380D02*
X137540952Y-74382380D01*
X137445714Y-74525238D01*
X137350476Y-74620476D01*
X137255238Y-74668095D01*
%TO.C,R1*%
X103973333Y-76652380D02*
X103640000Y-76176190D01*
X103401904Y-76652380D02*
X103401904Y-75652380D01*
X103782857Y-75652380D01*
X103878095Y-75700000D01*
X103925714Y-75747619D01*
X103973333Y-75842857D01*
X103973333Y-75985714D01*
X103925714Y-76080952D01*
X103878095Y-76128571D01*
X103782857Y-76176190D01*
X103401904Y-76176190D01*
X104925714Y-76652380D02*
X104354285Y-76652380D01*
X104640000Y-76652380D02*
X104640000Y-75652380D01*
X104544761Y-75795238D01*
X104449523Y-75890476D01*
X104354285Y-75938095D01*
D11*
%TO.C,J2*%
X80772000Y-70285428D02*
X80772000Y-71374000D01*
X80699428Y-71591714D01*
X80554285Y-71736857D01*
X80336571Y-71809428D01*
X80191428Y-71809428D01*
X81425142Y-70430571D02*
X81497714Y-70358000D01*
X81642857Y-70285428D01*
X82005714Y-70285428D01*
X82150857Y-70358000D01*
X82223428Y-70430571D01*
X82296000Y-70575714D01*
X82296000Y-70720857D01*
X82223428Y-70938571D01*
X81352571Y-71809428D01*
X82296000Y-71809428D01*
D10*
%TO.C,U1*%
X117348095Y-68032380D02*
X117348095Y-68841904D01*
X117395714Y-68937142D01*
X117443333Y-68984761D01*
X117538571Y-69032380D01*
X117729047Y-69032380D01*
X117824285Y-68984761D01*
X117871904Y-68937142D01*
X117919523Y-68841904D01*
X117919523Y-68032380D01*
X118919523Y-69032380D02*
X118348095Y-69032380D01*
X118633809Y-69032380D02*
X118633809Y-68032380D01*
X118538571Y-68175238D01*
X118443333Y-68270476D01*
X118348095Y-68318095D01*
%TO.C,D1*%
X103401904Y-66492380D02*
X103401904Y-65492380D01*
X103640000Y-65492380D01*
X103782857Y-65540000D01*
X103878095Y-65635238D01*
X103925714Y-65730476D01*
X103973333Y-65920952D01*
X103973333Y-66063809D01*
X103925714Y-66254285D01*
X103878095Y-66349523D01*
X103782857Y-66444761D01*
X103640000Y-66492380D01*
X103401904Y-66492380D01*
X104925714Y-66492380D02*
X104354285Y-66492380D01*
X104640000Y-66492380D02*
X104640000Y-65492380D01*
X104544761Y-65635238D01*
X104449523Y-65730476D01*
X104354285Y-65778095D01*
D12*
%TO.C,R2*%
X130910000Y-65310000D02*
X130910000Y-71850000D01*
X130910000Y-71850000D02*
X130580000Y-71850000D01*
X130580000Y-65310000D02*
X130910000Y-65310000D01*
X128500000Y-65310000D02*
X128170000Y-65310000D01*
X128170000Y-65310000D02*
X128170000Y-71850000D01*
X128170000Y-71850000D02*
X128500000Y-71850000D01*
%TO.C,J1*%
X136350000Y-74190000D02*
X136350000Y-73190000D01*
X136350000Y-73190000D02*
X134850000Y-73190000D01*
X137160000Y-63970000D02*
X137160000Y-64470000D01*
X137160000Y-73690000D02*
X137160000Y-74190000D01*
X138370000Y-64470000D02*
X138370000Y-73690000D01*
X138870000Y-63970000D02*
X134850000Y-63970000D01*
X138370000Y-73690000D02*
X137160000Y-73690000D01*
X134850000Y-63970000D02*
X134850000Y-74190000D01*
X137050000Y-63670000D02*
X134550000Y-63670000D01*
X136350000Y-63970000D02*
X136350000Y-64970000D01*
X134850000Y-74190000D02*
X138870000Y-74190000D01*
X134550000Y-63670000D02*
X134550000Y-66170000D01*
X138870000Y-74190000D02*
X138870000Y-63970000D01*
X137160000Y-64470000D02*
X138370000Y-64470000D01*
X136350000Y-64970000D02*
X134850000Y-64970000D01*
%TO.C,R1*%
X100870000Y-77570000D02*
X100870000Y-77240000D01*
X107410000Y-77240000D02*
X107410000Y-77570000D01*
X107410000Y-77570000D02*
X100870000Y-77570000D01*
X107410000Y-74830000D02*
X100870000Y-74830000D01*
X107410000Y-75160000D02*
X107410000Y-74830000D01*
X100870000Y-74830000D02*
X100870000Y-75160000D01*
D11*
%TO.C,J2*%
X95359220Y-80119220D02*
X78359000Y-80119220D01*
X95359220Y-73118980D02*
X93360240Y-73118980D01*
X95359220Y-62120780D02*
X95859600Y-62621160D01*
X77861160Y-81620360D02*
X77360780Y-81620360D01*
X76860400Y-80119220D02*
X76860400Y-60619640D01*
X93360240Y-65620900D02*
X93360240Y-69121020D01*
X77360780Y-62120780D02*
X77861160Y-62120780D01*
X77609700Y-62120780D02*
X77609700Y-81620360D01*
X95359220Y-69121020D02*
X93360240Y-69121020D01*
X77360780Y-60619640D02*
X77360780Y-62120780D01*
X77861160Y-62120780D02*
X77861160Y-81620360D01*
X78359000Y-62621160D02*
X77861160Y-62621160D01*
X95859600Y-62621160D02*
X95859600Y-65120520D01*
X77109320Y-60619640D02*
X77109320Y-80119220D01*
X95859600Y-69618860D02*
X95359220Y-69121020D01*
X95359220Y-76619100D02*
X93360240Y-76619100D01*
X78359000Y-62120780D02*
X78359000Y-62621160D01*
X77360780Y-80119220D02*
X76860400Y-80119220D01*
X78359000Y-80119220D02*
X78359000Y-79618840D01*
X77360780Y-80119220D02*
X77360780Y-62120780D01*
X95359220Y-62120780D02*
X78359000Y-62120780D01*
X77861160Y-79618840D02*
X78359000Y-79618840D01*
X95859600Y-69618860D02*
X95859600Y-72621140D01*
X95859600Y-79618840D02*
X95859600Y-77619860D01*
X95859600Y-77119480D02*
X95359220Y-76619100D01*
X76860400Y-60619640D02*
X77360780Y-60619640D01*
X93360240Y-76619100D02*
X93360240Y-73118980D01*
X95859600Y-72621140D02*
X95359220Y-73118980D01*
X95859600Y-77619860D02*
X95859600Y-77119480D01*
X77360780Y-81620360D02*
X77360780Y-80119220D01*
X95859600Y-65120520D02*
X95359220Y-65620900D01*
X95359220Y-80119220D02*
X95859600Y-79618840D01*
X95359220Y-65620900D02*
X93360240Y-65620900D01*
D12*
%TO.C,U1*%
X115860000Y-73730000D02*
X120360000Y-73730000D01*
X117110000Y-63450000D02*
X115860000Y-63450000D01*
X120360000Y-73730000D02*
X120360000Y-63450000D01*
X115860000Y-63450000D02*
X115860000Y-73730000D01*
X120360000Y-63450000D02*
X119110000Y-63450000D01*
X117110000Y-63450000D02*
G75*
G03*
X119110000Y-63450000I1000000J0D01*
G01*
%TO.C,D1*%
X102020000Y-64920000D02*
X102020000Y-67160000D01*
X106260000Y-64920000D02*
X102020000Y-64920000D01*
X106910000Y-66040000D02*
X106260000Y-66040000D01*
X105540000Y-67160000D02*
X105540000Y-64920000D01*
X101370000Y-66040000D02*
X102020000Y-66040000D01*
X102020000Y-67160000D02*
X106260000Y-67160000D01*
X106260000Y-67160000D02*
X106260000Y-64920000D01*
X105660000Y-67160000D02*
X105660000Y-64920000D01*
X105420000Y-67160000D02*
X105420000Y-64920000D01*
%TD*%
D13*
%TO.C,J2*%
X79362300Y-66118740D03*
X79362300Y-76121260D03*
X89357200Y-78618080D03*
X89359740Y-71120000D03*
X89357200Y-63621920D03*
X91859100Y-76116180D03*
X91859100Y-66123820D03*
%TD*%
M02*
