M48
; DRILL file {KiCad (6.0.1)} date Sat Feb 12 00:32:00 2022
; FORMAT={-:-/ absolute / inch / decimal}
; #@! TF.CreationDate,2022-02-12T00:32:00+11:00
; #@! TF.GenerationSoftware,Kicad,Pcbnew,(6.0.1)
; #@! TF.FileFunction,Plated,1,2,PTH
FMAT,2
INCH
; #@! TA.AperFunction,Plated,PTH,ComponentDrill
T1C0.0315
; #@! TA.AperFunction,Plated,PTH,ComponentDrill
T2C0.0374
; #@! TA.AperFunction,Plated,PTH,ComponentDrill
T3C0.0550
%
G90
G05
T1
X3.95Y-2.6
X3.95Y-3.0
X4.25Y-2.6
X4.25Y-3.0
X4.5Y-2.5504
X4.5Y-2.6504
X4.5Y-2.7504
X4.5Y-2.8504
X4.8Y-2.5504
X4.8Y-2.6504
X4.8Y-2.7504
X4.8Y-2.8504
X5.1Y-2.55
X5.1Y-2.85
T2
X5.4Y-2.6213
X5.4Y-2.7197
X5.4Y-2.8181
T3
X3.518Y-2.5048
X3.518Y-3.0952
X3.5181Y-2.8
X3.6165Y-2.6033
X3.6165Y-2.9967
T0
M30
